<svg id="Layer_1" data-name="Layer 1" xmlns="http://www.w3.org/2000/svg" xmlns:xlink="http://www.w3.org/1999/xlink" viewBox="0 0 1500 1500">
  <defs>
    <style>
      .cls-1, .cls-3, .cls-4 {
        fill: none;
      }

      .cls-2 {
        clip-path: url(#clip-path);
      }

      .cls-3, .cls-4 {
        stroke: #231f20;
        stroke-miterlimit: 10;
      }

      .cls-3 {
        stroke-width: 13px;
      }

      .cls-4 {
        stroke-width: 10px;
      }
    </style>
    <clipPath id="clip-path">
      <path class="cls-1" d="M751.1,1484.55A734.28,734.28,0,0,1,465.29,74a734.28,734.28,0,0,1,571.62,1352.75A729.6,729.6,0,0,1,751.1,1484.55Zm0-1130.43c-218.51,0-396.29,177.78-396.29,396.29s177.78,396.3,396.29,396.3,396.3-177.78,396.3-396.3S969.62,354.12,751.1,354.12Z"/>
    </clipPath>
  </defs>
  <g class="cls-2">
    <path class="cls-3" d="M751.1,1484.55A734.28,734.28,0,0,1,465.29,74a734.28,734.28,0,0,1,571.62,1352.75A729.6,729.6,0,0,1,751.1,1484.55Zm0-1130.43c-218.51,0-396.29,177.78-396.29,396.29s177.78,396.3,396.29,396.3,396.3-177.78,396.3-396.3S969.62,354.12,751.1,354.12Z"/>
    <path class="cls-4" d="M0,25.76c46.87,0,46.87,92,93.75,92s46.87-92,93.75-92,46.87,92,93.75,92,46.87-92,93.75-92,46.87,92,93.74,92,46.88-92,93.75-92,46.87,92,93.75,92,46.87-92,93.75-92,46.87,92,93.74,92,46.88-92,93.75-92,46.88,92,93.75,92,46.88-92,93.76-92,46.87,92,93.74,92,46.88-92,93.76-92,46.88,92,93.75,92,46.88-92,93.76-92"/>
    <path class="cls-4" d="M0,118.86c46.87,0,46.87,92,93.75,92s46.87-92,93.75-92,46.87,92,93.75,92,46.87-92,93.75-92,46.87,92,93.74,92,46.88-92,93.75-92,46.87,92,93.75,92,46.87-92,93.75-92,46.87,92,93.74,92,46.88-92,93.75-92,46.88,92,93.75,92,46.88-92,93.76-92,46.87,92,93.74,92,46.88-92,93.76-92,46.88,92,93.75,92,46.88-92,93.76-92"/>
    <path class="cls-4" d="M0,212c46.87,0,46.87,92,93.75,92s46.87-92,93.75-92,46.87,92,93.75,92,46.87-92,93.75-92,46.87,92,93.74,92,46.88-92,93.75-92,46.87,92,93.75,92,46.87-92,93.75-92,46.87,92,93.74,92,46.88-92,93.75-92,46.88,92,93.75,92,46.88-92,93.76-92,46.87,92,93.74,92,46.88-92,93.76-92,46.88,92,93.75,92,46.88-92,93.76-92"/>
    <path class="cls-4" d="M0,305.07c46.87,0,46.87,92,93.75,92s46.87-92,93.75-92,46.87,92,93.75,92,46.87-92,93.75-92,46.87,92,93.74,92,46.88-92,93.75-92,46.87,92,93.75,92,46.87-92,93.75-92,46.87,92,93.74,92,46.88-92,93.75-92,46.88,92,93.75,92,46.88-92,93.76-92,46.87,92,93.74,92,46.88-92,93.76-92,46.88,92,93.75,92,46.88-92,93.76-92"/>
    <path class="cls-4" d="M0,398.17c46.87,0,46.87,92,93.75,92s46.87-92,93.75-92,46.87,92,93.75,92,46.87-92,93.75-92,46.87,92,93.74,92,46.88-92,93.75-92,46.87,92,93.75,92,46.87-92,93.75-92,46.87,92,93.74,92,46.88-92,93.75-92,46.88,92,93.75,92,46.88-92,93.76-92,46.87,92,93.74,92,46.88-92,93.76-92,46.88,92,93.75,92,46.88-92,93.76-92"/>
    <path class="cls-4" d="M0,491.28c46.87,0,46.87,92,93.75,92s46.87-92,93.75-92,46.87,92,93.75,92,46.87-92,93.75-92,46.87,92,93.74,92,46.88-92,93.75-92,46.87,92,93.75,92,46.87-92,93.75-92,46.87,92,93.74,92,46.88-92,93.75-92,46.88,92,93.75,92,46.88-92,93.76-92,46.87,92,93.74,92,46.88-92,93.76-92,46.88,92,93.75,92,46.88-92,93.76-92"/>
    <path class="cls-4" d="M0,584.38c46.87,0,46.87,92,93.75,92s46.87-92,93.75-92,46.87,92,93.75,92,46.87-92,93.75-92,46.87,92,93.74,92,46.88-92,93.75-92,46.87,92,93.75,92,46.87-92,93.75-92,46.87,92,93.74,92,46.88-92,93.75-92,46.88,92,93.75,92,46.88-92,93.76-92,46.87,92,93.74,92,46.88-92,93.76-92,46.88,92,93.75,92,46.88-92,93.76-92"/>
    <path class="cls-4" d="M0,677.48c46.87,0,46.87,92,93.75,92s46.87-92,93.75-92,46.87,92,93.75,92,46.87-92,93.75-92,46.87,92,93.74,92,46.88-92,93.75-92,46.87,92,93.75,92,46.87-92,93.75-92,46.87,92,93.74,92,46.88-92,93.75-92,46.88,92,93.75,92,46.88-92,93.76-92,46.87,92,93.74,92,46.88-92,93.76-92,46.88,92,93.75,92,46.88-92,93.76-92"/>
    <path class="cls-4" d="M0,770.59c46.87,0,46.87,92,93.75,92s46.87-92,93.75-92,46.87,92,93.75,92,46.87-92,93.75-92,46.87,92,93.74,92,46.88-92,93.75-92,46.87,92,93.75,92,46.87-92,93.75-92,46.87,92,93.74,92,46.88-92,93.75-92,46.88,92,93.75,92,46.88-92,93.76-92,46.87,92,93.74,92,46.88-92,93.76-92,46.88,92,93.75,92,46.88-92,93.76-92"/>
    <path class="cls-4" d="M0,863.69c46.87,0,46.87,92,93.75,92s46.87-92,93.75-92,46.87,92,93.75,92,46.87-92,93.75-92,46.87,92,93.74,92,46.88-92,93.75-92,46.87,92,93.75,92,46.87-92,93.75-92,46.87,92,93.74,92,46.88-92,93.75-92,46.88,92,93.75,92,46.88-92,93.76-92,46.87,92,93.74,92,46.88-92,93.76-92,46.88,92,93.75,92,46.88-92,93.76-92"/>
    <path class="cls-4" d="M0,956.79c46.87,0,46.87,92,93.75,92s46.87-92,93.75-92,46.87,92,93.75,92,46.87-92,93.75-92,46.87,92,93.74,92,46.88-92,93.75-92,46.87,92,93.75,92,46.87-92,93.75-92,46.87,92,93.74,92,46.88-92,93.75-92,46.88,92,93.75,92,46.88-92,93.76-92,46.87,92,93.74,92,46.88-92,93.76-92,46.88,92,93.75,92,46.88-92,93.76-92"/>
    <path class="cls-4" d="M0,1049.9c46.87,0,46.87,92,93.75,92s46.87-92,93.75-92,46.87,92,93.75,92,46.87-92,93.75-92,46.87,92,93.74,92,46.88-92,93.75-92,46.87,92,93.75,92,46.87-92,93.75-92,46.87,92,93.74,92,46.88-92,93.75-92,46.88,92,93.75,92,46.88-92,93.76-92,46.87,92,93.74,92,46.88-92,93.76-92,46.88,92,93.75,92,46.88-92,93.76-92"/>
    <path class="cls-4" d="M0,1143c46.87,0,46.87,92,93.75,92s46.87-92,93.75-92,46.87,92,93.75,92,46.87-92,93.75-92,46.87,92,93.74,92,46.88-92,93.75-92,46.87,92,93.75,92,46.87-92,93.75-92,46.87,92,93.74,92,46.88-92,93.75-92,46.88,92,93.75,92,46.88-92,93.76-92,46.87,92,93.74,92,46.88-92,93.76-92,46.88,92,93.75,92,46.88-92,93.76-92"/>
    <path class="cls-4" d="M0,1236.1c46.87,0,46.87,92,93.75,92s46.87-92,93.75-92,46.87,92,93.75,92,46.87-92,93.75-92,46.87,92,93.74,92,46.88-92,93.75-92,46.87,92,93.75,92,46.87-92,93.75-92,46.87,92,93.74,92,46.88-92,93.75-92,46.88,92,93.75,92,46.88-92,93.76-92,46.87,92,93.74,92,46.88-92,93.76-92,46.88,92,93.75,92,46.88-92,93.76-92"/>
    <path class="cls-4" d="M0,1329.21c46.87,0,46.87,92,93.75,92s46.87-92,93.75-92,46.87,92,93.75,92,46.87-92,93.75-92,46.87,92,93.74,92,46.88-92,93.75-92,46.87,92,93.75,92,46.87-92,93.75-92,46.87,92,93.74,92,46.88-92,93.75-92,46.88,92,93.75,92,46.88-92,93.76-92,46.87,92,93.74,92,46.88-92,93.76-92,46.88,92,93.75,92,46.88-92,93.76-92"/>
    <path class="cls-4" d="M0,1417.14c46.87,0,46.87,92,93.75,92s46.87-92,93.75-92,46.87,92,93.75,92,46.87-92,93.75-92,46.87,92,93.74,92,46.88-92,93.75-92,46.87,92,93.75,92,46.87-92,93.75-92,46.87,92,93.74,92,46.88-92,93.75-92,46.88,92,93.75,92,46.88-92,93.76-92,46.87,92,93.74,92,46.88-92,93.76-92,46.88,92,93.75,92,46.88-92,93.76-92"/>
  </g>
</svg>
