<svg id="Layer_1" data-name="Layer 1" xmlns="http://www.w3.org/2000/svg" viewBox="0 0 1280 720">
  <defs>
    <style>
      .cls-1 {
        fill: #fbd30c;
      }

      .cls-2 {
        fill: #fedd3d;
      }

      .cls-3, .cls-4, .cls-5, .cls-6 {
        fill: none;
        stroke: #fedd3d;
        stroke-miterlimit: 10;
      }

      .cls-3, .cls-6 {
        stroke-width: 20px;
      }

      .cls-4 {
        stroke-width: 10px;
      }

      .cls-5 {
        stroke-width: 100px;
      }

      .cls-6 {
        stroke-linecap: round;
      }
    </style>
  </defs>
  <rect class="cls-1" width="1280" height="720"/>
  <path class="cls-2" d="M235.82,720H185.64C176.46,622.9,105.28,538.29,0,494.65V441.23c57.32,20.91,108.53,53,148.31,93.61,27.9,28.45,49.66,60.28,64.7,94.62A278.26,278.26,0,0,1,235.82,720Z"/>
  <path class="cls-2" d="M158.89,720h-51C94,660.18,54.94,608.4,0,575.5V519.07a299.26,299.26,0,0,1,97,73.68A275,275,0,0,1,145.7,673.6,264.52,264.52,0,0,1,158.89,720Z"/>
  <g>
    <circle class="cls-3" cx="643.06" cy="391.36" r="225.86"/>
    <circle class="cls-4" cx="643.06" cy="391.36" r="144.19"/>
    <circle class="cls-4" cx="642.59" cy="390.89" r="95.1"/>
    <circle class="cls-4" cx="642.19" cy="391.36" r="187.48"/>
  </g>
  <path class="cls-5" d="M948.48,802c26-131.79,126.89-242.55,266.3-274.35a352.5,352.5,0,0,1,65.22-8.62"/>
  <path class="cls-2" d="M1376.51,100.22v68.9a233.41,233.41,0,0,1-115.78,52.08,237.29,237.29,0,0,1-35.56,2.68A233.14,233.14,0,0,1,1086.23,178,233.36,233.36,0,0,1,993.41,24a233.09,233.09,0,0,1,23.81-143.45h61.52l54.47,40.18A115,115,0,0,0,1157.46,81.4a114.15,114.15,0,0,0,85.36,21.15,114.18,114.18,0,0,0,75.31-45.4Z"/>
  <path class="cls-3" d="M1256.27,691.67,1241,699.51c-18.73-10.23-38.61-12.33-55.06-3.87s-26.3,25.86-28.87,47.05l-15.22,7.83c-13.2-40.58-4.25-80.45,23.57-94.76S1230.93,657.34,1256.27,691.67Z"/>
  <polyline class="cls-6" points="408.59 -37.86 407.65 28.74 349.51 61.23 292.3 27.12 293.23 -39.48"/>
  <polyline class="cls-6" points="701.21 -38.81 700.27 27.79 642.13 60.28 584.92 26.18 585.85 -40.42"/>
  <polyline class="cls-6" points="131.04 -38.81 130.11 27.79 71.96 60.28 14.75 26.18 15.68 -40.42"/>
</svg>
